<?xml version="1.0" encoding="UTF-8" standalone="no"?>
<svg
   xmlns:dc="http://purl.org/dc/elements/1.1/"
   xmlns:cc="http://creativecommons.org/ns#"
   xmlns:rdf="http://www.w3.org/1999/02/22-rdf-syntax-ns#"
   xmlns:svg="http://www.w3.org/2000/svg"
   xmlns="http://www.w3.org/2000/svg"
   xmlns:sodipodi="http://sodipodi.sourceforge.net/DTD/sodipodi-0.dtd"
   xmlns:inkscape="http://www.inkscape.org/namespaces/inkscape"
   width="40"
   height="40"
   viewBox="0 0 40 40"
   version="1.1"
   id="svg2006"
   sodipodi:docname="galaxy.svg"
   inkscape:version="1.0.2-2 (e86c870879, 2021-01-15)">
  <defs
     id="defs2000" />
  <sodipodi:namedview
     id="base"
     pagecolor="#ffffff"
     bordercolor="#666666"
     borderopacity="1.0"
     inkscape:pageopacity="0.0"
     inkscape:pageshadow="2"
     inkscape:zoom="15.839192"
     inkscape:cx="-18.797779"
     inkscape:cy="20.132813"
     inkscape:document-units="mm"
     inkscape:current-layer="layer1"
     inkscape:document-rotation="0"
     showgrid="false"
     units="px"
     showguides="true"
     inkscape:guide-bbox="true"
     inkscape:window-width="3360"
     inkscape:window-height="1990"
     inkscape:window-x="-12"
     inkscape:window-y="-12"
     inkscape:window-maximized="1" />
  <metadata
     id="metadata2003">
    <rdf:RDF>
      <cc:Work
         rdf:about="">
        <dc:format>image/svg+xml</dc:format>
        <dc:type
           rdf:resource="http://purl.org/dc/dcmitype/StillImage" />
        <dc:title />
      </cc:Work>
    </rdf:RDF>
  </metadata>
  <g
     inkscape:label="Layer 1"
     inkscape:groupmode="layer"
     id="layer1">
    <path
       d="m 26.623893,39.635033 c 0.02853,-0.02868 -0.06728,-0.132769 -0.21337,-0.231197 -0.349974,-0.235833 -0.604001,-0.838104 -0.526901,-1.249196 0.03179,-0.169704 0.243723,-0.549647 0.482105,-0.864625 1.765105,-2.33188 2.740663,-4.854974 2.998615,-7.755386 0.212184,-2.385973 -0.256821,-4.727621 -1.430869,-7.143961 -0.741011,-1.525074 -0.743049,-1.525909 -0.689389,-0.283505 0.157683,3.651158 -1.139509,7.65586 -3.466931,10.703151 -0.540234,0.707335 -1.941421,2.136268 -2.679316,2.732373 -2.368824,1.913674 -5.27543,3.169044 -8.363675,3.612306 -1.006209,0.14442 -1.032921,0.144152 -1.303666,-0.01455 -0.622364,-0.364421 -0.819308,-1.007276 -0.506525,-1.653403 0.254772,-0.526311 0.55011,-0.67754 1.629764,-0.834457 3.165847,-0.46011 6.023121,-1.915933 8.214494,-4.185361 1.215919,-1.259229 1.972138,-2.378625 2.654648,-3.929574 0.338599,-0.769465 0.972176,-2.669301 0.910683,-2.7308 -0.01833,-0.01833 -0.200809,0.176066 -0.405177,0.432401 -0.503398,0.631405 -1.465403,1.522347 -2.372102,2.196846 C 16.823063,31.957146 10.945804,32.794972 5.5061411,30.724106 3.8425759,30.090788 1.6596232,28.807041 0.70622849,27.901387 0.28725065,27.50338 0.25851758,27.450658 0.25851758,27.079761 c 0,-0.218006 0.0280312,-0.396552 0.062532,-0.396876 0.0345145,-2.48e-4 0.12506825,-0.110514 0.20156357,-0.244855 0.17617319,-0.309652 0.71606275,-0.588164 1.14019915,-0.588164 0.3388168,0 0.3095982,-0.01674 1.9717119,1.136145 0.8472002,0.587696 2.434808,1.359726 3.4681605,1.686515 1.4722381,0.46561 2.3212226,0.604385 3.9923033,0.652703 1.813016,0.05229 2.928816,-0.09682 4.459609,-0.596526 0.867939,-0.283345 2.89038,-1.208997 3.250925,-1.487957 0.157414,-0.121779 0.14809,-0.127119 -0.166686,-0.0959 -1.023815,0.101508 -1.434539,0.107064 -2.417363,0.03289 -3.42488,-0.259303 -6.6985,-1.540829 -9.2943119,-3.63846 C 5.478643,22.368749 3.9713262,20.623863 3.0363787,19.035236 1.8196564,16.967858 0.9001214,14.18549 0.7813177,12.21181 L 0.73550427,11.452152 1.0267202,11.134366 c 0.2634516,-0.287495 0.3381159,-0.320862 0.7826234,-0.349919 0.5823423,-0.03827 0.9896271,0.143504 1.2263989,0.546665 0.08334,0.141885 0.2059301,0.625297 0.2724522,1.074215 0.4800562,3.239493 1.801851,5.888044 4.07129,8.157827 1.2239409,1.224129 2.207557,1.931011 3.6343983,2.611876 0.864333,0.412457 2.736061,1.087736 3.021496,1.090102 0.09255,7.63e-4 -0.07284,-0.188844 -0.441413,-0.506097 C 12.386904,22.720152 10.950822,20.857934 10.063978,19.18156 9.178513,17.507811 8.5649037,15.618984 8.3078136,13.775692 8.1577325,12.699515 8.1361688,10.548811 8.2652261,9.5099444 8.6320203,6.5538345 9.713561,3.8308463 11.475973,1.4264856 c 0.738364,-1.00731429 0.937395,-1.16700237 1.454481,-1.16700237 0.353636,0 0.46491,0.0409698 0.706526,0.26097179 0.362697,0.33008249 0.581469,0.87966418 0.507334,1.27468478 -0.03077,0.1639902 -0.27623,0.5910269 -0.558558,0.9718265 -1.700504,2.2934649 -2.62709,4.6779125 -2.91267,7.4953637 -0.262427,2.589025 0.380539,5.488795 1.777506,8.016352 l 0.353317,0.639238 0.0075,-1.681203 c 0.0059,-1.326082 0.04475,-1.883697 0.1834,-2.639813 0.534504,-2.915738 1.622347,-5.3604653 3.393912,-7.6271813 0.588331,-0.7527635 2.081195,-2.2303761 2.833565,-2.8046104 2.336641,-1.7834204 5.12765,-2.952536 8.035658,-3.36603642 0.961928,-0.13676601 1.008672,-0.13628075 1.310264,0.0134773 0.641852,0.31892302 0.85788,0.98243552 0.536174,1.64694512 -0.254771,0.5263092 -0.55011,0.6775337 -1.629758,0.8344505 -3.036714,0.4413501 -5.721535,1.7589732 -7.903377,3.8786754 -1.73873,1.689209 -2.782044,3.4047148 -3.589045,5.9013998 -0.166412,0.514935 -0.302646,0.975395 -0.302646,1.023266 0,0.04798 0.222804,-0.171806 0.495042,-0.488143 1.912717,-2.222343 5.100456,-4.1656398 8.132409,-4.9576593 1.556509,-0.406577 2.370032,-0.5039916 4.209544,-0.5039916 1.872741,0 2.672669,0.098707 4.299685,0.5306221 2.041374,0.5418837 3.895129,1.4155428 5.638759,2.6575158 0.982895,0.7001 1.314775,1.081417 1.314775,1.510621 0,0.187334 -0.03772,0.385879 -0.08424,0.441241 -0.04633,0.05537 -0.157838,0.199087 -0.247818,0.319353 -0.214183,0.286363 -0.654758,0.489867 -1.060442,0.489867 -0.343722,0 -0.453588,-0.06194 -1.775059,-1.000559 -0.887705,-0.630518 -2.625923,-1.492408 -3.677771,-1.823597 -1.677101,-0.528034 -2.360241,-0.627803 -4.324542,-0.631447 -2.008564,-0.0037 -2.605229,0.08049 -4.155015,0.586246 -0.844791,0.275688 -2.866578,1.203417 -3.222084,1.47848 -0.157413,0.121775 -0.148085,0.127119 0.166687,0.0959 1.023809,-0.101508 1.434539,-0.10706 2.417357,-0.03289 2.828471,0.214124 5.650537,1.152539 7.901598,2.627456 1.097201,0.718898 1.582616,1.114183 2.633321,2.144403 1.710735,1.677376 2.935021,3.526317 3.84138,5.801329 0.590202,1.481425 1.085424,3.623078 1.086135,4.697104 2.48e-4,0.428679 -0.02947,0.513264 -0.27768,0.783896 -0.24098,0.262965 -0.338976,0.30841 -0.735669,0.341294 -0.628318,0.05229 -1.071306,-0.174395 -1.311533,-0.670668 -0.09655,-0.199409 -0.175527,-0.461889 -0.175527,-0.583329 0,-0.121452 -0.07439,-0.604628 -0.165335,-1.073756 -0.508308,-2.622041 -1.747786,-5.130887 -3.452682,-6.988518 -1.625215,-1.770816 -3.567811,-3.008585 -6.00973,-3.82924 -1.240156,-0.416768 -1.405262,-0.429058 -0.982349,-0.07305 2.265082,1.906822 4.180147,4.889778 5.060782,7.88281 0.424584,1.443025 0.554305,2.305703 0.605081,4.023931 0.0704,2.382986 -0.138598,3.899311 -0.821352,5.957853 -0.625075,1.884688 -1.913771,4.203055 -3.000222,5.397371 l -0.436012,0.479301 h -0.49774 c -0.273801,0 -0.474287,-0.02358 -0.445555,-0.0523 z"
       id="path2599"
       inkscape:export-xdpi="300"
       inkscape:export-ydpi="300" />
  </g>
</svg>
