<?xml version="1.0" encoding="UTF-8" standalone="no"?>
<svg
   xmlns:dc="http://purl.org/dc/elements/1.1/"
   xmlns:cc="http://creativecommons.org/ns#"
   xmlns:rdf="http://www.w3.org/1999/02/22-rdf-syntax-ns#"
   xmlns:svg="http://www.w3.org/2000/svg"
   xmlns="http://www.w3.org/2000/svg"
   xmlns:sodipodi="http://sodipodi.sourceforge.net/DTD/sodipodi-0.dtd"
   xmlns:inkscape="http://www.inkscape.org/namespaces/inkscape"
   width="233.28mm"
   height="94.221mm"
   version="1.1"
   viewBox="0 0 233.28 94.221"
   id="svg1167"
   sodipodi:docname="logo.svg"
   inkscape:version="1.0.2-2 (e86c870879, 2021-01-15)">
  <defs
     id="defs1171" />
  <sodipodi:namedview
     pagecolor="#ffffff"
     bordercolor="#666666"
     borderopacity="1"
     objecttolerance="10"
     gridtolerance="10"
     guidetolerance="10"
     inkscape:pageopacity="0"
     inkscape:pageshadow="2"
     inkscape:window-width="3840"
     inkscape:window-height="2050"
     id="namedview1169"
     showgrid="false"
     inkscape:zoom="1.283187"
     inkscape:cx="-227.73206"
     inkscape:cy="232.68982"
     inkscape:window-x="3348"
     inkscape:window-y="-12"
     inkscape:window-maximized="1"
     inkscape:current-layer="svg1167"
     inkscape:document-rotation="0" />
  <metadata
     id="metadata1135">
    <rdf:RDF>
      <cc:Work
         rdf:about="">
        <dc:format>image/svg+xml</dc:format>
        <dc:type
           rdf:resource="http://purl.org/dc/dcmitype/StillImage" />
        <dc:title />
      </cc:Work>
    </rdf:RDF>
  </metadata>
  <path
     d="m 0.759,70.29 c 0,12.8 10.376,23.176 23.176,23.176 12.8,0 23.176,-10.376 23.176,-23.176 0,-12.8 10.376,-23.176 23.176,-23.176 12.8,0 23.176,10.376 23.176,23.176 0,12.8 10.376,23.176 23.176,23.176 12.8,0 23.176,-10.376 23.176,-23.176 0,-12.8 10.376,-23.176 23.176,-23.176 12.8,0 23.176,10.376 23.176,23.176 0,12.8 10.376,23.176 23.176,23.176 12.8,0 23.176,-10.376 23.176,-23.176 0,-12.8 -10.376,-23.176 -23.176,-23.176 -12.8,0 -23.176,-10.376 -23.176,-23.176 0,-12.8 -10.376,-23.176 -23.176,-23.176 -12.8,0 -23.176,10.376 -23.176,23.176 0,12.8 -10.376,23.176 -23.176,23.176 -12.8,0 -23.176,-10.376 -23.176,-23.176 0,-12.8 -10.376,-23.176 -23.176,-23.176 -12.8,0 -23.176,10.376 -23.176,23.176 -10e-6,12.8 -10.376,23.176 -23.176,23.176 -12.8,0 -23.176,10.376 -23.176,23.176 z"
     fill="#9387f0"
     fill-opacity="0.73462"
     stroke="#9488f0"
     stroke-linecap="round"
     stroke-linejoin="round"
     stroke-width="1.5174"
     id="path1137"
     style="fill:#094672;fill-opacity:0.3764706;stroke:#0bdbfb;stroke-opacity:1" />
  <path
     d="m 162.937,0.76 c -0.44426,0.001 -0.8854,0.017 -1.3234,0.043 l -52.724,91.322 c 0.35964,0.1281 0.7233,0.2475 1.0909,0.3581 z M 71.662,0.799 18.533,92.821 c 0.3815,0.092 0.76639,0.1741 1.155,0.2465 L 72.9,0.9035 c -0.40961,-0.045 -0.8224,-0.08 -1.2382,-0.1044 z m -4.4178,0.1622 c -0.48298,0.064 -0.9609,0.1436 -1.434,0.2367 l -51.938,89.958 c 0.33842,0.1639 0.681,0.32 1.0284,0.4677 z m 99.814,0.1494 -53.22,92.18 c 0.40719,0.05 0.81751,0.088 1.2309,0.1162 l 53.151,-92.061 c -0.3839,-0.088 -0.77129,-0.1664 -1.1622,-0.2351 z m -10.225,0.4837 c -0.53756,0.1484 -1.0669,0.3163 -1.588,0.5018 l -16.296,28.225 c -1.056,3.6916 -3.005,7.0059 -5.5976,9.6955 l -28.862,49.992 c 0.31813,0.1968 0.64133,0.3858 0.96945,0.5674 z m -80.054,0.08 -52.993,91.786 c 0.0583,4e-4 0.11625,0 0.17467,0 0.38173,0 0.76122,-0.01 1.1384,-0.028 l 52.777,-91.412 C 77.51429,1.8954 77.14852,1.7793 76.77867,1.672 Z m 95.092,0.8377 -52.413,90.782 c 0.47848,-0.057 0.95256,-0.1293 1.4216,-0.2155 l 52.025,-90.109 C 172.56465,2.8088 172.22025,2.6561 171.8713,2.5117 Z M 60.4812,2.945 C 59.843,3.2446 59.2205,3.5719 58.6157,3.9263 l -11.474,19.873 c -2.6e-4,0.045 -0.002,0.09 -0.002,0.1349 0,0.7815 -0.0392,1.554 -0.11472,2.3156 z m 20.848,0.5927 -51.483,89.17 c 0.53068,-0.1389 1.0543,-0.295 1.5694,-0.4698 l 16.913,-29.295 c 0.99554,-2.9822 2.5812,-5.6933 4.6178,-7.9974 L 82.3034,4.0965 C 81.98334,3.9027 81.65821,3.7164 81.32826,3.5379 Z m 94.824,1.3007 -27.115,46.965 c 0.68007,-0.5153 1.3897,-0.9935 2.1254,-1.4325 l 25.905,-44.868 C 176.76903,5.2742 176.46369,5.053 176.15289,4.8388 Z m -27.206,0.6832 c -0.9577,0.7331 -1.8576,1.5378 -2.6892,2.4087 l -5.4896,9.5084 c -0.33229,1.1401 -0.58039,2.3158 -0.73484,3.5213 z m -63.592,0.7798 -24.804,42.963 c 0.5586,-0.2599 1.1288,-0.4985 1.7105,-0.7141 L 86.2107,7.0693 C 85.93191,6.8065 85.64649,6.5508 85.35494,6.3019 Z m 94.556,1.7668 -23.014,39.862 c 0.49526,-0.1354 0.99693,-0.2554 1.5048,-0.3582 L 180.699,8.951 c -0.25526,-0.3009 -0.51802,-0.5953 -0.78807,-0.8827 z m -91.071,1.9363 -21.536,37.301 c 0.45503,-0.059 0.91426,-0.1041 1.3772,-0.1364 l 20.876,-36.158 C 89.32713,10.669 89.08731,10.3338 88.83961,10.005 Z m 94.239,2.3157 -20.087,34.791 c 0.009,0 0.0186,-5e-4 0.0279,-5e-4 0.41941,0 0.83613,0.012 1.2501,0.034 l 19.438,-33.666 c -0.19884,-0.3926 -0.40876,-0.7787 -0.6289,-1.158 z m -91.426,2.5502 -18.701,32.39 c 0.40361,0.046 0.80391,0.1019 1.201,0.168 l 18.021,-31.214 c -0.16058,-0.4546 -0.33377,-0.9035 -0.52142,-1.3446 z m 93.773,3.1212 -17.157,29.716 c 0.38013,0.088 0.75694,0.1855 1.1296,0.2919 l 16.393,-28.392 c -0.10305,-0.5456 -0.22529,-1.0846 -0.36587,-1.616 z m -92.048,3.6272 -15.455,26.77 c 0.35958,0.1249 0.71532,0.2581 1.0666,0.3999 l 14.5,-25.114 c -0.008,-0.6931 -0.0439,-1.379 -0.11111,-2.0562 z m 92.929,4.5847 -13.358,23.137 c 0.33958,0.1613 0.67485,0.3299 1.0051,0.507 l 12.601,-21.826 c -0.10646,-0.5983 -0.18845,-1.2047 -0.24805,-1.818 z m -92.054,3.6376 -11.911,20.63 c 0.32089,0.1952 0.63682,0.3982 0.94723,0.6083 l 11.407,-19.756 c -0.16365,-0.4869 -0.31128,-0.9808 -0.44287,-1.4815 z m 93.77,3.1284 -10.919,18.912 c 0.30103,0.2307 0.59661,0.4683 0.88573,0.7131 l 10.609,-18.376 c -0.20337,-0.41 -0.3963,-0.8262 -0.57567,-1.2496 z m -91.429,2.5544 -10.351,17.928 c 0.28157,0.2665 0.55683,0.5395 0.82476,0.8196 l 10.196,-17.661 c -0.23281,-0.3556 -0.45683,-0.7173 -0.67025,-1.0862 z m 94.237,2.3177 -10.102,17.497 c 0.25952,0.3072 0.51095,0.6211 0.75447,0.9416 l 10.099,-17.491 c -0.25843,-0.3091 -0.50907,-0.6247 -0.75137,-0.9472 z m -91.073,1.9394 -10.174,17.623 c 0.23552,0.3515 0.46053,0.7106 0.67696,1.0753 l 10.316,-17.867 c -0.2799,-0.2702 -0.55301,-0.5472 -0.81907,-0.831 z m 94.554,1.7689 -10.581,18.328 c 0.20522,0.4075 0.39838,0.822 0.57981,1.2428 l 10.884,-18.852 c -0.30019,-0.2324 -0.59443,-0.4722 -0.88263,-0.7188 z m -156.81,1.1968 c -0.66339,0.4782 -1.3531,0.9225 -2.0666,1.3297 l -25.696,44.507 c 0.2974,0.2316 0.60078,0.4558 0.90951,0.6729 z m 66.011,0.2687 -11.32,19.606 c 0.1678,0.479 0.32069,0.9651 0.45734,1.4578 l 11.804,-20.446 c -0.31921,-0.1983 -0.63345,-0.4043 -0.94206,-0.6175 z m 94.824,1.3038 -12.533,21.707 c 0.10979,0.5908 0.19744,1.1891 0.26149,1.7947 l 13.273,-22.989 c -0.33847,-0.1628 -0.67239,-0.3341 -1.0015,-0.5127 z m -72.249,0.7959 c -0.55098,0.2453 -1.1136,0.4696 -1.6862,0.6723 l -23.791,41.208 c 0.27672,0.266 0.5594,0.5256 0.84904,0.7778 z m -18.298,0.232 -14.299,24.766 c 4.2e-4,0.058 0.002,0.1148 0.002,0.1726 0,0.6503 0.0281,1.2943 0.0806,1.9311 l 15.277,-26.46 c -0.35778,-0.1282 -0.71151,-0.2653 -1.0609,-0.4103 z m 95.09,0.8402 -16.312,28.253 c 0.0997,0.5509 0.21869,1.0954 0.35657,1.632 l 17.082,-29.587 c -0.37934,-0.09 -0.75519,-0.1893 -1.1271,-0.2977 z m -173.09,0.1855 c -0.49026,0.1268 -0.98703,0.2368 -1.4893,0.3318 l -22.162,38.386 c 0.253,0.3044 0.51439,0.6015 0.78238,0.8925 z m 82.813,0.3814 -17.884,30.977 c 0.15615,0.4606 0.32779,0.9141 0.5116,1.3612 l 18.567,-32.159 c -0.40144,-0.05 -0.79996,-0.1089 -1.1948,-0.1788 z m 6.8084,0.1943 c -0.4523,0.053 -0.9085,0.094 -1.3684,0.1204 l -20.747,35.934 c 0.22775,0.3463 0.46404,0.6865 0.70952,1.0196 z m 88.585,0.1199 -19.37,33.55 c 0.19738,0.3956 0.4048,0.7856 0.62374,1.1679 l 20.021,-34.677 c -0.42783,0 -0.85279,-0.016 -1.2748,-0.041 z m -184.26,0.045 c -0.44557,0 -0.88835,0.021 -1.3276,0.05 L 3.16,80.5054 c 0.19579,0.3979 0.40257,0.7895 0.62012,1.1741 z m 189.65,0.3452 -21.776,37.718 c 0.25399,0.3026 0.51556,0.5987 0.78444,0.8878 l 22.155,-38.372 c -0.38409,-0.088 -0.77162,-0.1658 -1.1627,-0.2341 z m -195.78,0.5353 c -0.5412,0.1541 -1.0741,0.3272 -1.5984,0.5189 l -14.875,25.764 c 0.0965,0.5558 0.21298,1.105 0.3483,1.6465 z m 200.6,0.861 -22.974,39.793 c 0.29836,0.2301 0.60244,0.453 0.91209,0.6686 l 23.097,-40.004 c -0.34052,-0.1605 -0.68521,-0.3132 -1.0346,-0.4573 z m 4.2814,2.3229 -23.108,40.024 c 0.33928,0.1624 0.68277,0.3169 1.0309,0.463 l 22.993,-39.825 c -0.29955,-0.2282 -0.60495,-0.4488 -0.9157,-0.6625 z M 9.628,52.0785 c -1.0078,0.7947 -1.9481,1.671 -2.8107,2.6195 l -4.9372,8.5519 c -0.38248,1.2016 -0.66922,2.4455 -0.85214,3.7233 z m 216.62,2.3244 -22.196,38.445 c 0.38257,0.09 0.76845,0.1707 1.1581,0.2413 l 21.827,-37.804 c -0.25546,-0.3005 -0.51835,-0.5946 -0.78858,-0.8816 z m 3.1698,4.2463 -20.099,34.812 c 0.0178,0 0.0354,5e-4 0.0532,5e-4 0.42413,0 0.84547,-0.012 1.264,-0.035 l 19.412,-33.621 c -0.19928,-0.3923 -0.4099,-0.7779 -0.63046,-1.157 z m 2.3523,5.6647 -16.371,28.355 c 0.53377,-0.1434 1.0599,-0.3049 1.5777,-0.4847 l 15.16,-26.258 c -0.10365,-0.5443 -0.2259,-1.0821 -0.36691,-1.6123 z m -91.749,3.1094 -13.864,24.014 c 0.62592,-0.2811 1.2364,-0.5903 1.8314,-0.9239 l 11.861,-20.544 c 0.0115,-0.8607 0.0686,-1.7105 0.17157,-2.5461 z m -93.005,5.286 -9.4248,16.324 c 0.8924,-0.6497 1.7368,-1.3613 2.5265,-2.129 l 6.3262,-10.958 c 0.2642,-1.0525 0.45735,-2.1334 0.57206,-3.2375 z m 185.38,0.2641 -9.1839,15.907 c 0.92153,-0.6869 1.7901,-1.4407 2.5988,-2.2542 l 5.9428,-10.293 c 0.2939,-1.0902 0.50981,-2.2123 0.64234,-3.3599 z"
     color="#000000"
     color-rendering="auto"
     dominant-baseline="auto"
     fill="#9488f0"
     fill-opacity="0.2"
     image-rendering="auto"
     shape-rendering="auto"
     solid-color="#000000"
     stop-color="#000000"
     style="font-variant-ligatures:normal;font-variant-position:normal;font-variant-caps:normal;font-variant-numeric:normal;font-variant-alternates:normal;font-variant-east-asian:normal;font-feature-settings:normal;font-variation-settings:normal;text-indent:0;text-decoration:none;text-decoration-line:none;text-decoration-style:solid;text-decoration-color:#000000;text-transform:none;text-orientation:mixed;white-space:normal;shape-padding:0;shape-margin:0;inline-size:0;isolation:auto;mix-blend-mode:normal;fill:#0bdbfb;fill-opacity:0.2"
     id="path1139" />
  <g
     transform="translate(-16.053,-84.997)"
     fill="none"
     stroke="#f4f5f8"
     stroke-opacity="0.93725"
     id="g1151">
    <g
       stroke-width="2.1167"
       id="g1147">
      <path
         d="M 42.995,151.8 82.257,111.687"
         id="path1141" />
      <path
         d="m 137.19,151.8 39.262,-40.113"
         id="path1143" />
      <path
         d="M 223.02,151.8 183.758,111.687"
         id="path1145" />
    </g>
    <path
       d="M 128.82,151.8 90.03,111.924"
       stroke-width="2.1167"
       id="path1149" />
  </g>
  <g
     transform="translate(-16.053,-84.997)"
     fill="#ffffff"
     shape-rendering="auto"
     id="g1163">
    <path
       d="m 39.186,149.75 c -3.2059,0 -5.8124,2.6065 -5.8124,5.8124 0,3.2059 2.6065,5.8124 5.8124,5.8124 3.2059,0 5.8124,-2.6065 5.8124,-5.8124 0,-3.2059 -2.6065,-5.8124 -5.8124,-5.8124 z m 0,0.69842 c 2.8288,0 5.1145,2.2852 5.1145,5.114 0,2.8288 -2.2858,5.1145 -5.1145,5.1145 -2.8287,0 -5.114,-2.2858 -5.114,-5.1145 0,-2.8287 2.2852,-5.114 5.114,-5.114 z m -0.0037,2.2478 a 2.8664,2.8664 0 0 0 -2.8639,2.8664 2.8664,2.8664 0 0 0 2.8664,2.8664 2.8664,2.8664 0 0 0 2.8664,-2.8664 2.8664,2.8664 0 0 0 -2.8664,-2.8664 2.8664,2.8664 0 0 0 -0.0037,0 z"
       color="#000000"
       color-rendering="auto"
       dominant-baseline="auto"
       image-rendering="auto"
       solid-color="#000000"
       stop-color="#000000"
       style="font-variant-ligatures:normal;font-variant-position:normal;font-variant-caps:normal;font-variant-numeric:normal;font-variant-alternates:normal;font-variant-east-asian:normal;font-feature-settings:normal;font-variation-settings:normal;text-indent:0;text-decoration:none;text-decoration-line:none;text-decoration-style:solid;text-decoration-color:#000000;text-transform:none;text-orientation:mixed;white-space:normal;shape-padding:0;shape-margin:0;inline-size:0;isolation:auto;mix-blend-mode:normal"
       id="path1153" />
    <path
       d="m 86.433,102.31 c -3.2059,0 -5.8124,2.6065 -5.8124,5.8124 0,3.2059 2.6065,5.8124 5.8124,5.8124 3.2059,0 5.8124,-2.6065 5.8124,-5.8124 0,-3.2059 -2.6065,-5.8124 -5.8124,-5.8124 z m 0,0.69842 c 2.8288,0 5.1145,2.2852 5.1145,5.114 0,2.8288 -2.2858,5.1145 -5.1145,5.1145 -2.8287,0 -5.114,-2.2858 -5.114,-5.1145 0,-2.8287 2.2852,-5.114 5.114,-5.114 z m -0.0037,2.2478 a 2.8664,2.8664 0 0 0 -2.8639,2.8664 2.8664,2.8664 0 0 0 2.8664,2.8664 2.8664,2.8664 0 0 0 2.8664,-2.8664 2.8664,2.8664 0 0 0 -2.8664,-2.8664 2.8664,2.8664 0 0 0 -0.0037,0 z"
       color="#000000"
       color-rendering="auto"
       dominant-baseline="auto"
       image-rendering="auto"
       solid-color="#000000"
       stop-color="#000000"
       style="font-variant-ligatures:normal;font-variant-position:normal;font-variant-caps:normal;font-variant-numeric:normal;font-variant-alternates:normal;font-variant-east-asian:normal;font-feature-settings:normal;font-variation-settings:normal;text-indent:0;text-decoration:none;text-decoration-line:none;text-decoration-style:solid;text-decoration-color:#000000;text-transform:none;text-orientation:mixed;white-space:normal;shape-padding:0;shape-margin:0;inline-size:0;isolation:auto;mix-blend-mode:normal"
       id="path1155" />
    <path
       d="m 180.1,102.31 c -3.2059,0 -5.8124,2.6065 -5.8124,5.8124 0,3.2059 2.6065,5.8124 5.8124,5.8124 3.2059,0 5.8124,-2.6065 5.8124,-5.8124 0,-3.2059 -2.6065,-5.8124 -5.8124,-5.8124 z m 0,0.69842 c 2.8288,0 5.1145,2.2852 5.1145,5.114 0,2.8288 -2.2858,5.1145 -5.1145,5.1145 -2.8287,0 -5.114,-2.2858 -5.114,-5.1145 0,-2.8287 2.2852,-5.114 5.114,-5.114 z m -0.004,2.2478 a 2.8664,2.8664 0 0 0 -2.8639,2.8664 2.8664,2.8664 0 0 0 2.8664,2.8664 2.8664,2.8664 0 0 0 2.8664,-2.8664 2.8664,2.8664 0 0 0 -2.8664,-2.8664 2.8664,2.8664 0 0 0 -0.004,0 z"
       color="#000000"
       color-rendering="auto"
       dominant-baseline="auto"
       image-rendering="auto"
       solid-color="#000000"
       stop-color="#000000"
       style="font-variant-ligatures:normal;font-variant-position:normal;font-variant-caps:normal;font-variant-numeric:normal;font-variant-alternates:normal;font-variant-east-asian:normal;font-feature-settings:normal;font-variation-settings:normal;text-indent:0;text-decoration:none;text-decoration-line:none;text-decoration-style:solid;text-decoration-color:#000000;text-transform:none;text-orientation:mixed;white-space:normal;shape-padding:0;shape-margin:0;inline-size:0;isolation:auto;mix-blend-mode:normal"
       id="path1157" />
    <path
       d="m 132.85,149.75 c -3.2059,0 -5.8124,2.6065 -5.8124,5.8124 0,3.2059 2.6065,5.8124 5.8124,5.8124 3.2059,0 5.8124,-2.6065 5.8124,-5.8124 0,-3.2059 -2.6065,-5.8124 -5.8124,-5.8124 z m 0,0.69842 c 2.8288,0 5.1145,2.2852 5.1145,5.114 0,2.8288 -2.2858,5.1145 -5.1145,5.1145 -2.8287,0 -5.114,-2.2858 -5.114,-5.1145 0,-2.8287 2.2852,-5.114 5.114,-5.114 z m -0.004,2.2478 a 2.8664,2.8664 0 0 0 -2.8639,2.8664 2.8664,2.8664 0 0 0 2.8664,2.8664 2.8664,2.8664 0 0 0 2.8664,-2.8664 2.8664,2.8664 0 0 0 -2.8664,-2.8664 2.8664,2.8664 0 0 0 -0.004,0 z"
       color="#000000"
       color-rendering="auto"
       dominant-baseline="auto"
       image-rendering="auto"
       solid-color="#000000"
       stop-color="#000000"
       style="font-variant-ligatures:normal;font-variant-position:normal;font-variant-caps:normal;font-variant-numeric:normal;font-variant-alternates:normal;font-variant-east-asian:normal;font-feature-settings:normal;font-variation-settings:normal;text-indent:0;text-decoration:none;text-decoration-line:none;text-decoration-style:solid;text-decoration-color:#000000;text-transform:none;text-orientation:mixed;white-space:normal;shape-padding:0;shape-margin:0;inline-size:0;isolation:auto;mix-blend-mode:normal"
       id="path1159" />
    <path
       d="m 226.51,149.75 c -3.2059,0 -5.8124,2.6065 -5.8124,5.8124 0,3.2059 2.6065,5.8124 5.8124,5.8124 3.2059,0 5.8124,-2.6065 5.8124,-5.8124 0,-3.2059 -2.6065,-5.8124 -5.8124,-5.8124 z m 0,0.69842 c 2.8288,0 5.1145,2.2852 5.1145,5.114 0,2.8288 -2.2858,5.1145 -5.1145,5.1145 -2.8287,0 -5.114,-2.2858 -5.114,-5.1145 0,-2.8287 2.2852,-5.114 5.114,-5.114 z m -0.004,2.2478 a 2.8664,2.8664 0 0 0 -2.8639,2.8664 2.8664,2.8664 0 0 0 2.8664,2.8664 2.8664,2.8664 0 0 0 2.8664,-2.8664 2.8664,2.8664 0 0 0 -2.8664,-2.8664 2.8664,2.8664 0 0 0 -0.004,0 z"
       color="#000000"
       color-rendering="auto"
       dominant-baseline="auto"
       image-rendering="auto"
       solid-color="#000000"
       stop-color="#000000"
       style="font-variant-ligatures:normal;font-variant-position:normal;font-variant-caps:normal;font-variant-numeric:normal;font-variant-alternates:normal;font-variant-east-asian:normal;font-feature-settings:normal;font-variation-settings:normal;text-indent:0;text-decoration:none;text-decoration-line:none;text-decoration-style:solid;text-decoration-color:#000000;text-transform:none;text-orientation:mixed;white-space:normal;shape-padding:0;shape-margin:0;inline-size:0;isolation:auto;mix-blend-mode:normal"
       id="path1161" />
  </g>
</svg>
